<svg width="85" height="25" viewBox="0 0 85 25" fill="none" xmlns="http://www.w3.org/2000/svg">
<g filter="url(#filter0_d_7_3)">
<path d="M12.6367 10.2852C12.6367 11.2148 12.4609 12.0898 12.1094 12.9102C11.7578 13.7227 11.2773 14.4336 10.668 15.043C10.0664 15.6445 9.35547 16.1211 8.53516 16.4727C7.72266 16.8242 6.85156 17 5.92188 17C5.35938 17 4.79688 16.9297 4.23438 16.7891V13.1797C4.48438 13.3281 4.75391 13.4414 5.04297 13.5195C5.33203 13.5977 5.625 13.6367 5.92188 13.6367C6.38281 13.6367 6.81641 13.5508 7.22266 13.3789C7.63672 13.1992 7.99609 12.957 8.30078 12.6523C8.60547 12.3477 8.84375 11.9922 9.01562 11.5859C9.19531 11.1797 9.28516 10.7461 9.28516 10.2852V0.195312H12.6367V10.2852ZM25.3398 10.2852V6.92188C25.3398 6.46094 25.25 6.02734 25.0703 5.62109C24.8984 5.20703 24.6602 4.84766 24.3555 4.54297C24.0508 4.23828 23.6914 4 23.2773 3.82812C22.8711 3.64844 22.4375 3.55859 21.9766 3.55859C21.5156 3.55859 21.0781 3.64844 20.6641 3.82812C20.2578 4 19.9023 4.23828 19.5977 4.54297C19.293 4.84766 19.0508 5.20703 18.8711 5.62109C18.6992 6.02734 18.6133 6.46094 18.6133 6.92188V10.2852H25.3398ZM28.7031 17H25.3398V13.6367H18.6133V17H15.2617V6.92188C15.2617 5.99219 15.4375 5.12109 15.7891 4.30859C16.1406 3.48828 16.6172 2.77344 17.2188 2.16406C17.8281 1.55469 18.5391 1.07422 19.3516 0.722656C20.1719 0.371094 21.0469 0.195312 21.9766 0.195312C22.9062 0.195312 23.7773 0.371094 24.5898 0.722656C25.4102 1.07422 26.125 1.55469 26.7344 2.16406C27.3438 2.77344 27.8242 3.48828 28.1758 4.30859C28.5273 5.12109 28.7031 5.99219 28.7031 6.92188V17ZM34.9844 3.55859V10.2852H38.3477C38.8086 10.2852 39.2422 10.1992 39.6484 10.0273C40.0547 9.84766 40.4102 9.60547 40.7148 9.30078C41.0195 8.99609 41.2578 8.64062 41.4297 8.23438C41.6094 7.82031 41.6992 7.38281 41.6992 6.92188C41.6992 6.46094 41.6094 6.02734 41.4297 5.62109C41.2578 5.20703 41.0195 4.84766 40.7148 4.54297C40.4102 4.23828 40.0547 4 39.6484 3.82812C39.2422 3.64844 38.8086 3.55859 38.3477 3.55859H34.9844ZM34.9844 17H31.6211V0.195312H38.3477C38.9648 0.195312 39.5586 0.277344 40.1289 0.441406C40.6992 0.597656 41.2305 0.824219 41.7227 1.12109C42.2227 1.41016 42.6758 1.76172 43.082 2.17578C43.4961 2.58203 43.8477 3.03516 44.1367 3.53516C44.4336 4.03516 44.6602 4.57031 44.8164 5.14062C44.9805 5.71094 45.0625 6.30469 45.0625 6.92188C45.0625 7.5 44.9883 8.0625 44.8398 8.60938C44.6992 9.15625 44.4922 9.67578 44.2188 10.168C43.9531 10.6602 43.625 11.1133 43.2344 11.5273C42.8438 11.9414 42.4062 12.3008 41.9219 12.6055L43.7852 17H40.2109L38.7461 13.6133L34.9844 13.6367V17ZM59.957 0.195312L54.4375 17H51.0742L45.5781 0.195312H49.3984L52.75 11.4102L56.1133 0.195312H59.957ZM64.9375 17H61.5742V0.195312H64.9375V17ZM67.082 5.23438C67.082 4.53906 67.2148 3.88672 67.4805 3.27734C67.7461 2.66797 68.1055 2.13672 68.5586 1.68359C69.0195 1.22266 69.5547 0.859375 70.1641 0.59375C70.7734 0.328125 71.4258 0.195312 72.1211 0.195312H79.832V3.55859H72.1211C71.8867 3.55859 71.668 3.60156 71.4648 3.6875C71.2617 3.77344 71.082 3.89453 70.9258 4.05078C70.7773 4.19922 70.6602 4.375 70.5742 4.57812C70.4883 4.78125 70.4453 5 70.4453 5.23438C70.4453 5.46875 70.4883 5.69141 70.5742 5.90234C70.6602 6.10547 70.7773 6.28516 70.9258 6.44141C71.082 6.58984 71.2617 6.70703 71.4648 6.79297C71.668 6.87891 71.8867 6.92188 72.1211 6.92188H75.4844C76.1797 6.92188 76.832 7.05469 77.4414 7.32031C78.0586 7.57812 78.5938 7.9375 79.0469 8.39844C79.5078 8.85156 79.8672 9.38672 80.125 10.0039C80.3906 10.6133 80.5234 11.2656 80.5234 11.9609C80.5234 12.6562 80.3906 13.3086 80.125 13.918C79.8672 14.5273 79.5078 15.0625 79.0469 15.5234C78.5938 15.9766 78.0586 16.3359 77.4414 16.6016C76.832 16.8672 76.1797 17 75.4844 17H68.0195V13.6367H75.4844C75.7188 13.6367 75.9375 13.5938 76.1406 13.5078C76.3438 13.4219 76.5195 13.3047 76.668 13.1562C76.8242 13 76.9453 12.8203 77.0312 12.6172C77.1172 12.4141 77.1602 12.1953 77.1602 11.9609C77.1602 11.7266 77.1172 11.5078 77.0312 11.3047C76.9453 11.1016 76.8242 10.9258 76.668 10.7773C76.5195 10.6211 76.3438 10.5 76.1406 10.4141C75.9375 10.3281 75.7188 10.2852 75.4844 10.2852H72.1211C71.4258 10.2852 70.7734 10.1523 70.1641 9.88672C69.5547 9.62109 69.0195 9.26172 68.5586 8.80859C68.1055 8.34766 67.7461 7.8125 67.4805 7.20312C67.2148 6.58594 67.082 5.92969 67.082 5.23438Z" fill="#FFF2E7"/>
<path d="M12.1094 12.9102L13.0272 13.3073L13.0285 13.3041L12.1094 12.9102ZM8.53516 16.4727L8.14123 15.5535L8.13804 15.5549L8.53516 16.4727ZM4.23438 16.7891H3.23438V17.5698L3.99184 17.7592L4.23438 16.7891ZM4.23438 13.1797L4.74491 12.3198L3.23438 11.423V13.1797H4.23438ZM7.22266 13.3789L7.61231 14.2999L7.62075 14.2963L7.22266 13.3789ZM9.01562 11.5859L8.10109 11.1814L8.09781 11.1888L8.09466 11.1963L9.01562 11.5859ZM9.28516 0.195312V-0.804688H8.28516V0.195312H9.28516ZM12.6367 0.195312H13.6367V-0.804688H12.6367V0.195312ZM11.6367 10.2852C11.6367 11.0852 11.4862 11.8256 11.1902 12.5162L13.0285 13.3041C13.4357 12.3541 13.6367 11.3445 13.6367 10.2852H11.6367ZM11.1916 12.513C10.8887 13.2131 10.4787 13.8181 9.96086 14.3359L11.3751 15.7501C12.076 15.0491 12.6269 14.2322 13.0271 13.3073L11.1916 12.513ZM9.96086 14.3359C9.45363 14.8431 8.85044 15.2496 8.14124 15.5535L8.92908 17.3918C9.8605 16.9926 10.6792 16.446 11.3751 15.7501L9.96086 14.3359ZM8.13804 15.5549C7.45716 15.8495 6.72194 16 5.92188 16V18C6.98118 18 7.98815 17.7989 8.93227 17.3904L8.13804 15.5549ZM5.92188 16C5.44362 16 4.96254 15.9403 4.47691 15.8189L3.99184 17.7592C4.63121 17.919 5.27513 18 5.92188 18V16ZM5.23438 16.7891V13.1797H3.23438V16.7891H5.23438ZM3.72384 14.0395C4.05419 14.2357 4.40802 14.3838 4.78206 14.4849L5.30388 12.5542C5.09979 12.499 4.91456 12.4206 4.74491 12.3198L3.72384 14.0395ZM4.78206 14.4849C5.15544 14.5858 5.53612 14.6367 5.92188 14.6367V12.6367C5.71388 12.6367 5.50862 12.6095 5.30388 12.5542L4.78206 14.4849ZM5.92188 14.6367C6.51054 14.6367 7.07724 14.5262 7.6123 14.2999L6.83302 12.4579C6.55557 12.5753 6.25508 12.6367 5.92188 12.6367V14.6367ZM7.62075 14.2963C8.14455 14.0689 8.61014 13.7572 9.00789 13.3595L7.59367 11.9452C7.38205 12.1569 7.12888 12.3295 6.82456 12.4616L7.62075 14.2963ZM9.00789 13.3595C9.40582 12.9615 9.71575 12.4976 9.93659 11.9756L8.09466 11.1963C7.97175 11.4868 7.80512 11.7338 7.59367 11.9452L9.00789 13.3595ZM9.93016 11.9904C10.1683 11.452 10.2852 10.88 10.2852 10.2852H8.28516C8.28516 10.6121 8.22229 10.9074 8.10109 11.1814L9.93016 11.9904ZM10.2852 10.2852V0.195312H8.28516V10.2852H10.2852ZM9.28516 1.19531H12.6367V-0.804688H9.28516V1.19531ZM11.6367 0.195312V10.2852H13.6367V0.195312H11.6367ZM25.3398 10.2852V11.2852H26.3398V10.2852H25.3398ZM25.0703 5.62109L24.1467 6.00447L24.1511 6.01509L24.1558 6.0256L25.0703 5.62109ZM23.2773 3.82812L22.8728 4.74266L22.8833 4.74731L22.894 4.75172L23.2773 3.82812ZM20.6641 3.82812L21.0537 4.74913L21.0622 4.74547L20.6641 3.82812ZM18.8711 5.62109L17.9537 5.22298L17.9501 5.23145L18.8711 5.62109ZM18.6133 10.2852H17.6133V11.2852H18.6133V10.2852ZM28.7031 17V18H29.7031V17H28.7031ZM25.3398 17H24.3398V18H25.3398V17ZM25.3398 13.6367H26.3398V12.6367H25.3398V13.6367ZM18.6133 13.6367V12.6367H17.6133V13.6367H18.6133ZM18.6133 17V18H19.6133V17H18.6133ZM15.2617 17H14.2617V18H15.2617V17ZM15.7891 4.30859L16.7068 4.70571L16.7082 4.70251L15.7891 4.30859ZM17.2188 2.16406L16.5116 1.45694L16.5071 1.46153L17.2188 2.16406ZM19.3516 0.722656L18.9576 -0.196494L18.9545 -0.195114L19.3516 0.722656ZM24.5898 0.722656L24.1927 1.64043L24.1959 1.6418L24.5898 0.722656ZM28.1758 4.30859L27.2566 4.70252L27.258 4.70571L28.1758 4.30859ZM26.3398 10.2852V6.92188H24.3398V10.2852H26.3398ZM26.3398 6.92188C26.3398 6.32699 26.223 5.75507 25.9848 5.21659L24.1558 6.0256C24.277 6.29962 24.3398 6.59489 24.3398 6.92188H26.3398ZM25.9939 5.23772C25.7739 4.70759 25.4637 4.23697 25.0626 3.83586L23.6484 5.25008C23.8566 5.45834 24.023 5.70647 24.1467 6.00447L25.9939 5.23772ZM25.0626 3.83586C24.6615 3.43475 24.1908 3.12459 23.6607 2.90453L22.894 4.75172C23.192 4.87541 23.4401 5.04181 23.6484 5.25008L25.0626 3.83586ZM23.6818 2.91359C23.1434 2.67542 22.5714 2.55859 21.9766 2.55859V4.55859C22.3036 4.55859 22.5988 4.62146 22.8728 4.74266L23.6818 2.91359ZM21.9766 2.55859C21.3816 2.55859 20.8084 2.6754 20.266 2.91078L21.0622 4.74547C21.3479 4.62148 21.6496 4.55859 21.9766 4.55859V2.55859ZM20.2744 2.90716C19.7524 3.128 19.2885 3.43793 18.8905 3.83586L20.3048 5.25008C20.5162 5.03863 20.7632 4.872 21.0537 4.74909L20.2744 2.90716ZM18.8905 3.83586C18.4928 4.23361 18.1811 4.6992 17.9537 5.223L19.7884 6.01919C19.9205 5.71487 20.0931 5.4617 20.3048 5.25008L18.8905 3.83586ZM17.9501 5.23145C17.7238 5.76651 17.6133 6.33321 17.6133 6.92188H19.6133C19.6133 6.58867 19.6747 6.28818 19.7921 6.01073L17.9501 5.23145ZM17.6133 6.92188V10.2852H19.6133V6.92188H17.6133ZM18.6133 11.2852H25.3398V9.28516H18.6133V11.2852ZM28.7031 16H25.3398V18H28.7031V16ZM26.3398 17V13.6367H24.3398V17H26.3398ZM25.3398 12.6367H18.6133V14.6367H25.3398V12.6367ZM17.6133 13.6367V17H19.6133V13.6367H17.6133ZM18.6133 16H15.2617V18H18.6133V16ZM16.2617 17V6.92188H14.2617V17H16.2617ZM16.2617 6.92188C16.2617 6.12181 16.4122 5.38659 16.7068 4.70571L14.8713 3.91148C14.4628 4.8556 14.2617 5.86257 14.2617 6.92188H16.2617ZM16.7082 4.70251C17.0126 3.9922 17.4204 3.38323 17.9304 2.86659L16.5071 1.46153C15.814 2.16364 15.2686 2.98436 14.8699 3.91467L16.7082 4.70251ZM17.9259 2.87117C18.4437 2.35337 19.0486 1.94333 19.7487 1.64043L18.9545 -0.195114C18.0295 0.205111 17.2126 0.756002 16.5116 1.45696L17.9259 2.87117ZM19.7455 1.6418C20.4361 1.34581 21.1765 1.19531 21.9766 1.19531V-0.804688C20.9172 -0.804688 19.9076 -0.603623 18.9576 -0.196489L19.7455 1.6418ZM21.9766 1.19531C22.7766 1.19531 23.5118 1.34581 24.1927 1.64043L24.987 -0.195114C24.0428 -0.603626 23.0359 -0.804688 21.9766 -0.804688V1.19531ZM24.1959 1.6418C24.9035 1.94507 25.5111 2.35496 26.0273 2.87117L27.4415 1.45696C26.7389 0.754417 25.9168 0.20337 24.9838 -0.196489L24.1959 1.6418ZM26.0273 2.87117C26.5435 3.38738 26.9534 3.99489 27.2566 4.70251L29.0949 3.91467C28.6951 2.98167 28.144 2.15949 27.4415 1.45696L26.0273 2.87117ZM27.258 4.70571C27.5526 5.38659 27.7031 6.12181 27.7031 6.92188H29.7031C29.7031 5.86257 29.5021 4.8556 29.0936 3.91148L27.258 4.70571ZM27.7031 6.92188V17H29.7031V6.92188H27.7031ZM34.9844 3.55859V2.55859H33.9844V3.55859H34.9844ZM34.9844 10.2852H33.9844V11.2852H34.9844V10.2852ZM39.6484 10.0273L40.0381 10.9483L40.0455 10.9452L40.0529 10.9419L39.6484 10.0273ZM41.4297 8.23438L40.5123 7.83627L40.5087 7.84474L41.4297 8.23438ZM41.4297 5.62109L40.5061 6.00447L40.5105 6.01509L40.5152 6.0256L41.4297 5.62109ZM39.6484 3.82812L39.2439 4.74266L39.2513 4.74594L39.2588 4.74909L39.6484 3.82812ZM34.9844 17V18H35.9844V17H34.9844ZM31.6211 17H30.6211V18H31.6211V17ZM31.6211 0.195312V-0.804688H30.6211V0.195312H31.6211ZM40.1289 0.441406L39.8524 1.40251L39.8647 1.40586L40.1289 0.441406ZM41.7227 1.12109L41.2062 1.97739L41.2141 1.98218L41.2222 1.98683L41.7227 1.12109ZM43.082 2.17578L42.3682 2.87612L42.3749 2.88292L42.3817 2.88959L43.082 2.17578ZM44.1367 3.53516L43.2709 4.03569L43.2769 4.0457L44.1367 3.53516ZM44.8164 5.14062L43.8519 5.40488L43.8554 5.41708L44.8164 5.14062ZM44.8398 8.60938L43.8747 8.3474L43.8714 8.36033L44.8398 8.60938ZM44.2188 10.168L43.3445 9.68229L43.3387 9.69304L44.2188 10.168ZM41.9219 12.6055L41.3894 11.759L40.669 12.2122L41.0012 12.9958L41.9219 12.6055ZM43.7852 17V18H45.2953L44.7058 16.6096L43.7852 17ZM40.2109 17L39.2931 17.397L39.5539 18H40.2109V17ZM38.7461 13.6133L39.6639 13.2163L39.4013 12.6092L38.7399 12.6133L38.7461 13.6133ZM34.9844 13.6367L34.9781 12.6367L33.9844 12.6429V13.6367H34.9844ZM33.9844 3.55859V10.2852H35.9844V3.55859H33.9844ZM34.9844 11.2852H38.3477V9.28516H34.9844V11.2852ZM38.3477 11.2852C38.9363 11.2852 39.503 11.1747 40.0381 10.9483L39.2588 9.10638C38.9814 9.22376 38.6809 9.28516 38.3477 9.28516V11.2852ZM40.0529 10.9419C40.5684 10.7139 41.0273 10.4025 41.422 10.0079L40.0077 8.59367C39.793 8.80845 39.5409 8.98144 39.2439 9.11281L40.0529 10.9419ZM41.422 10.0079C41.8199 9.60995 42.1298 9.146 42.3507 8.62401L40.5087 7.84474C40.3858 8.13525 40.2192 8.38223 40.0077 8.59367L41.422 10.0079ZM42.347 8.63247C42.5824 8.09006 42.6992 7.51679 42.6992 6.92188H40.6992C40.6992 7.24884 40.6363 7.55056 40.5123 7.83628L42.347 8.63247ZM42.6992 6.92188C42.6992 6.32699 42.5824 5.75507 42.3442 5.21659L40.5152 6.0256C40.6364 6.29962 40.6992 6.59489 40.6992 6.92188H42.6992ZM42.3533 5.23772C42.1332 4.70759 41.8231 4.23697 41.422 3.83586L40.0077 5.25008C40.216 5.45834 40.3824 5.70647 40.5061 6.00447L42.3533 5.23772ZM41.422 3.83586C41.024 3.43793 40.5601 3.128 40.0381 2.90716L39.2588 4.74909C39.5493 4.872 39.7963 5.03863 40.0077 5.25008L41.422 3.83586ZM40.0529 2.91359C39.5145 2.67542 38.9425 2.55859 38.3477 2.55859V4.55859C38.6746 4.55859 38.9699 4.62146 39.2439 4.74266L40.0529 2.91359ZM38.3477 2.55859H34.9844V4.55859H38.3477V2.55859ZM34.9844 16H31.6211V18H34.9844V16ZM32.6211 17V0.195312H30.6211V17H32.6211ZM31.6211 1.19531H38.3477V-0.804688H31.6211V1.19531ZM38.3477 1.19531C38.8751 1.19531 39.3756 1.26524 39.8524 1.40243L40.4054 -0.519619C39.7416 -0.710556 39.0546 -0.804688 38.3477 -0.804688V1.19531ZM39.8647 1.40586C40.3489 1.53853 40.7949 1.72935 41.2062 1.97739L42.2391 0.264802C41.666 -0.0809078 41.0495 -0.343216 40.3931 -0.523052L39.8647 1.40586ZM41.2222 1.98683C41.6436 2.23045 42.025 2.52629 42.3682 2.87612L43.7958 1.47544C43.3266 0.997147 42.8018 0.58986 42.2232 0.255359L41.2222 1.98683ZM42.3817 2.88959C42.7315 3.23282 43.0274 3.61426 43.271 4.03566L45.0025 3.03465C44.668 2.45606 44.2607 1.93124 43.7824 1.46197L42.3817 2.88959ZM43.2769 4.0457C43.5272 4.46735 43.719 4.91949 43.8519 5.40486L45.7809 4.87639C45.6013 4.22114 45.34 3.60297 44.9966 3.02462L43.2769 4.0457ZM43.8554 5.41708C43.9926 5.89398 44.0625 6.39445 44.0625 6.92188H46.0625C46.0625 6.21493 45.9684 5.5279 45.7774 4.86417L43.8554 5.41708ZM44.0625 6.92188C44.0625 7.41333 43.9996 7.88766 43.8748 8.34742L45.8049 8.87133C45.977 8.23734 46.0625 7.58667 46.0625 6.92188H44.0625ZM43.8714 8.36033C43.7519 8.82488 43.5765 9.26488 43.3446 9.68233L45.0929 10.6536C45.4079 10.0867 45.6465 9.48762 45.8083 8.85842L43.8714 8.36033ZM43.3387 9.69304C43.1153 10.1071 42.8388 10.4894 42.507 10.8411L43.9618 12.2136C44.4112 11.7372 44.791 11.2132 45.0988 10.6429L43.3387 9.69304ZM42.507 10.8411C42.1746 11.1934 41.8027 11.499 41.3894 11.759L42.4543 13.4519C43.0098 13.1025 43.5129 12.6894 43.9618 12.2136L42.507 10.8411ZM41.0012 12.9958L42.8645 17.3904L44.7058 16.6096L42.8425 12.2151L41.0012 12.9958ZM43.7852 16H40.2109V18H43.7852V16ZM41.1288 16.603L39.6639 13.2163L37.8283 14.0103L39.2931 17.397L41.1288 16.603ZM38.7399 12.6133L34.9781 12.6367L34.9906 14.6367L38.7523 14.6133L38.7399 12.6133ZM33.9844 13.6367V17H35.9844V13.6367H33.9844ZM59.957 0.195312L60.9071 0.507363L61.338 -0.804688H59.957V0.195312ZM54.4375 17V18H55.1616L55.3876 17.3121L54.4375 17ZM51.0742 17L50.1238 17.3109L50.3492 18H51.0742V17ZM45.5781 0.195312V-0.804688H44.1989L44.6277 0.506167L45.5781 0.195312ZM49.3984 0.195312L50.3566 -0.0910249L50.1433 -0.804688H49.3984V0.195312ZM52.75 11.4102L51.7919 11.6965L52.7483 14.8969L53.7079 11.6974L52.75 11.4102ZM56.1133 0.195312V-0.804688H55.3692L55.1554 -0.0919436L56.1133 0.195312ZM59.007 -0.116738L53.4874 16.6879L55.3876 17.3121L60.9071 0.507363L59.007 -0.116738ZM54.4375 16H51.0742V18H54.4375V16ZM52.0247 16.6891L46.5286 -0.115542L44.6277 0.506167L50.1238 17.3109L52.0247 16.6891ZM45.5781 1.19531H49.3984V-0.804688H45.5781V1.19531ZM48.4403 0.48165L51.7919 11.6965L53.7081 11.1238L50.3566 -0.0910249L48.4403 0.48165ZM53.7079 11.6974L57.0711 0.482569L55.1554 -0.0919436L51.7921 11.1229L53.7079 11.6974ZM56.1133 1.19531H59.957V-0.804688H56.1133V1.19531ZM64.9375 17V18H65.9375V17H64.9375ZM61.5742 17H60.5742V18H61.5742V17ZM61.5742 0.195312V-0.804688H60.5742V0.195312H61.5742ZM64.9375 0.195312H65.9375V-0.804688H64.9375V0.195312ZM64.9375 16H61.5742V18H64.9375V16ZM62.5742 17V0.195312H60.5742V17H62.5742ZM61.5742 1.19531H64.9375V-0.804688H61.5742V1.19531ZM63.9375 0.195312V17H65.9375V0.195312H63.9375ZM79.832 0.195312H80.832V-0.804688H79.832V0.195312ZM79.832 3.55859V4.55859H80.832V3.55859H79.832ZM70.5742 5.90234L69.648 6.27967L69.6533 6.29198L70.5742 5.90234ZM70.9258 6.44141L70.2008 7.13016L70.2184 7.14875L70.237 7.16641L70.9258 6.44141ZM77.4414 7.32031L77.0418 8.23701L77.0489 8.24008L77.056 8.24304L77.4414 7.32031ZM79.0469 8.39844L78.3338 9.09948L78.3397 9.10557L78.3458 9.11156L79.0469 8.39844ZM80.125 10.0039L79.2023 10.3894L79.2052 10.3964L79.2083 10.4035L80.125 10.0039ZM80.125 13.918L79.2083 13.5184L79.204 13.5283L80.125 13.918ZM77.4414 16.6016L77.0461 15.683L77.0418 15.6849L77.4414 16.6016ZM68.0195 17H67.0195V18H68.0195V17ZM68.0195 13.6367V12.6367H67.0195V13.6367H68.0195ZM76.668 10.7773L75.943 11.4661L75.9606 11.4847L75.9792 11.5023L76.668 10.7773ZM68.5586 8.80859L67.8455 9.50963L67.8515 9.51573L67.8576 9.52172L68.5586 8.80859ZM67.4805 7.20312L66.5619 7.59845L66.5638 7.60271L67.4805 7.20312ZM68.082 5.23438C68.082 4.67012 68.189 4.15447 68.3972 3.67693L66.5638 2.87776C66.2407 3.61897 66.082 4.40801 66.082 5.23438H68.082ZM68.3972 3.67693C68.6147 3.17791 68.9044 2.75203 69.2657 2.3907L67.8515 0.976487C67.3066 1.5214 66.8775 2.15802 66.5638 2.87776L68.3972 3.67693ZM69.2657 2.3907C69.6364 2.02002 70.0667 1.72708 70.5636 1.51045L69.7645 -0.322946C69.0427 -0.00832559 68.4027 0.42529 67.8515 0.976487L69.2657 2.3907ZM70.5636 1.51045C71.0412 1.30229 71.5568 1.19531 72.1211 1.19531V-0.804688C71.2947 -0.804688 70.5057 -0.646037 69.7645 -0.322946L70.5636 1.51045ZM72.1211 1.19531H79.832V-0.804688H72.1211V1.19531ZM78.832 0.195312V3.55859H80.832V0.195312H78.832ZM79.832 2.55859H72.1211V4.55859H79.832V2.55859ZM72.1211 2.55859C71.7614 2.55859 71.4092 2.62522 71.0752 2.76653L71.8545 4.60847C71.9267 4.5779 72.0121 4.55859 72.1211 4.55859V2.55859ZM71.0752 2.76653C70.7532 2.90275 70.4658 3.09654 70.2187 3.34367L71.6329 4.75789C71.6982 4.69253 71.7702 4.64413 71.8545 4.60847L71.0752 2.76653ZM70.2187 3.34367C69.9746 3.58775 69.7868 3.87285 69.6533 4.18849L71.4952 4.96776C71.5335 4.87715 71.5801 4.81069 71.6329 4.75789L70.2187 3.34367ZM69.6533 4.18849C69.5119 4.52249 69.4453 4.87465 69.4453 5.23438H71.4453C71.4453 5.12535 71.4646 5.04001 71.4952 4.96776L69.6533 4.18849ZM69.4453 5.23438C69.4453 5.59428 69.512 5.94541 69.6481 6.27964L71.5003 5.52505C71.4646 5.43741 71.4453 5.34322 71.4453 5.23438H69.4453ZM69.6533 6.29198C69.7849 6.60314 69.9676 6.88474 70.2008 7.13016L71.6508 5.75266C71.5871 5.68558 71.5354 5.6078 71.4952 5.5127L69.6533 6.29198ZM70.237 7.16641C70.4825 7.39955 70.764 7.58229 71.0752 7.71394L71.8545 5.872C71.7594 5.83177 71.6816 5.78013 71.6145 5.71641L70.237 7.16641ZM71.0752 7.71394C71.4092 7.85525 71.7614 7.92188 72.1211 7.92188V5.92188C72.0121 5.92188 71.9267 5.90257 71.8545 5.872L71.0752 7.71394ZM72.1211 7.92188H75.4844V5.92188H72.1211V7.92188ZM75.4844 7.92188C76.0486 7.92188 76.5643 8.02885 77.0418 8.23701L77.841 6.40362C77.0998 6.08053 76.3107 5.92188 75.4844 5.92188V7.92188ZM77.056 8.24304C77.5546 8.45134 77.9773 8.73684 78.3338 9.09948L79.76 7.6974C79.2102 7.13816 78.5626 6.70491 77.8269 6.39758L77.056 8.24304ZM78.3458 9.11156C78.7085 9.46805 78.994 9.89069 79.2023 10.3894L81.0477 9.61846C80.7404 8.88275 80.3072 8.23508 79.7479 7.68531L78.3458 9.11156ZM79.2083 10.4035C79.4165 10.881 79.5234 11.3967 79.5234 11.9609H81.5234C81.5234 11.1346 81.3648 10.3455 81.0417 9.60432L79.2083 10.4035ZM79.5234 11.9609C79.5234 12.5252 79.4165 13.0408 79.2083 13.5184L81.0417 14.3176C81.3648 13.5763 81.5234 12.7873 81.5234 11.9609H79.5234ZM79.204 13.5283C78.9956 14.0209 78.7082 14.4479 78.3398 14.8163L79.754 16.2305C80.3074 15.6771 80.7387 15.0338 81.046 14.3076L79.204 13.5283ZM78.3398 14.8163C77.9805 15.1756 77.5526 15.465 77.0461 15.683L77.8367 17.5201C78.5646 17.2069 79.207 16.7776 79.754 16.2305L78.3398 14.8163ZM77.0418 15.6849C76.5643 15.893 76.0486 16 75.4844 16V18C76.3107 18 77.0998 17.8413 77.841 17.5183L77.0418 15.6849ZM75.4844 16H68.0195V18H75.4844V16ZM69.0195 17V13.6367H67.0195V17H69.0195ZM68.0195 14.6367H75.4844V12.6367H68.0195V14.6367ZM75.4844 14.6367C75.8441 14.6367 76.1963 14.5701 76.5303 14.4288L75.751 12.5868C75.6787 12.6174 75.5934 12.6367 75.4844 12.6367V14.6367ZM76.5303 14.4288C76.8459 14.2952 77.131 14.1074 77.3751 13.8634L75.9609 12.4491C75.9081 12.5019 75.8416 12.5485 75.751 12.5868L76.5303 14.4288ZM77.3751 13.8634C77.6222 13.6162 77.816 13.3288 77.9522 13.0068L76.1103 12.2275C76.0746 12.3118 76.0262 12.3838 75.9609 12.4491L77.3751 13.8634ZM77.9522 13.0068C78.0935 12.6728 78.1602 12.3207 78.1602 11.9609H76.1602C76.1602 12.07 76.1408 12.1553 76.1103 12.2275L77.9522 13.0068ZM78.1602 11.9609C78.1602 11.6012 78.0935 11.2491 77.9522 10.915L76.1103 11.6943C76.1408 11.7666 76.1602 11.8519 76.1602 11.9609H78.1602ZM77.9522 10.915C77.814 10.5884 77.615 10.2977 77.3567 10.0523L75.9792 11.5023C76.0335 11.5539 76.0766 11.6147 76.1103 11.6943L77.9522 10.915ZM77.393 10.0886C77.1476 9.83036 76.8569 9.63129 76.5303 9.4931L75.751 11.335C75.8306 11.3687 75.8914 11.4118 75.943 11.4661L77.393 10.0886ZM76.5303 9.4931C76.1963 9.35178 75.8441 9.28516 75.4844 9.28516V11.2852C75.5934 11.2852 75.6787 11.3045 75.751 11.335L76.5303 9.4931ZM75.4844 9.28516H72.1211V11.2852H75.4844V9.28516ZM72.1211 9.28516C71.5568 9.28516 71.0412 9.17818 70.5636 8.97002L69.7645 10.8034C70.5057 11.1265 71.2947 11.2852 72.1211 11.2852V9.28516ZM70.5636 8.97002C70.0631 8.75184 69.6309 8.46043 69.2596 8.09547L67.8576 9.52172C68.4082 10.063 69.0463 10.4903 69.7645 10.8034L70.5636 8.97002ZM69.2717 8.10756C68.9068 7.7363 68.6153 7.30408 68.3972 6.80354L66.5638 7.60271C66.8768 8.32092 67.3042 8.95901 67.8455 9.50963L69.2717 8.10756ZM68.399 6.8078C68.189 6.31985 68.082 5.79859 68.082 5.23438H66.082C66.082 6.06079 66.2407 6.85202 66.5619 7.59845L68.399 6.8078Z" fill="#FFF2E7"/>
</g>
<defs>
<filter id="filter0_d_7_3" x="0.234375" y="0.195312" width="84.2891" height="24.8047" filterUnits="userSpaceOnUse" color-interpolation-filters="sRGB">
<feFlood flood-opacity="0" result="BackgroundImageFix"/>
<feColorMatrix in="SourceAlpha" type="matrix" values="0 0 0 0 0 0 0 0 0 0 0 0 0 0 0 0 0 0 127 0" result="hardAlpha"/>
<feOffset dy="4"/>
<feGaussianBlur stdDeviation="2"/>
<feComposite in2="hardAlpha" operator="out"/>
<feColorMatrix type="matrix" values="0 0 0 0 0 0 0 0 0 0 0 0 0 0 0 0 0 0 0.25 0"/>
<feBlend mode="normal" in2="BackgroundImageFix" result="effect1_dropShadow_7_3"/>
<feBlend mode="normal" in="SourceGraphic" in2="effect1_dropShadow_7_3" result="shape"/>
</filter>
</defs>
</svg>
